<svg width="70" height="70" viewBox="0 0 70 70" fill="none" xmlns="http://www.w3.org/2000/svg">
<path d="M35.0044 68.9062C53.7349 68.9062 68.9106 53.7305 68.9106 35C68.9106 16.2695 53.7349 1.09375 35.0044 1.09375C16.2739 1.09375 1.09814 16.2695 1.09814 35C1.09814 53.7305 16.2739 68.9062 35.0044 68.9062ZM19.145 28.9844H35.0044V19.291C35.0044 17.8281 36.7817 17.0898 37.8071 18.1289L53.4341 33.8379C54.0767 34.4805 54.0767 35.5059 53.4341 36.1484L37.8071 51.8711C36.7681 52.9102 35.0044 52.1719 35.0044 50.709V41.0156H19.145C18.2427 41.0156 17.5044 40.2773 17.5044 39.375V30.625C17.5044 29.7227 18.2427 28.9844 19.145 28.9844Z" fill="black"/>
</svg>
